<svg width="168" height="168" viewBox="0 0 168 168" fill="none" xmlns="http://www.w3.org/2000/svg">
<circle cx="84" cy="84" r="84" fill="#D9D9D9"/>
<path d="M47.7005 76.468C45.2765 76.468 43.4165 75.076 42.1205 72.292C41.4245 70.78 41.0765 69.868 41.0765 69.556C41.0765 69.244 41.1725 68.98 41.3645 68.764C41.5325 68.524 41.7125 68.404 41.9045 68.404C42.3125 68.404 42.5525 68.56 42.6245 68.872C43.0565 70.6 43.7525 72.04 44.7125 73.192C45.6725 74.344 46.8725 74.92 48.3125 74.92C50.6405 74.92 52.4405 73.804 53.7125 71.572C55.0085 69.316 56.0405 66.34 56.8085 62.644L60.9125 43.168C60.0245 43.648 59.1485 43.888 58.2845 43.888C57.5165 43.888 56.2685 43.672 54.5405 43.24C53.3885 42.928 52.5005 42.748 51.8765 42.7C51.5405 42.556 51.3725 42.364 51.3725 42.124C51.3725 41.884 51.4685 41.656 51.6605 41.44C51.8765 41.224 52.1165 41.092 52.3805 41.044C52.7885 41.092 53.5685 41.26 54.7205 41.548C56.4005 41.98 57.6005 42.196 58.3205 42.196C59.1365 42.196 59.9285 41.968 60.6965 41.512C60.9125 41.392 61.1405 41.344 61.3805 41.368C61.6205 41.368 61.8245 41.368 61.9925 41.368C62.3285 41.368 62.5565 41.572 62.6765 41.98C61.5725 46.084 60.0845 53.38 58.2125 63.868C57.4205 67.876 56.2205 70.984 54.6125 73.192C53.0285 75.376 50.7245 76.468 47.7005 76.468ZM74.5613 76.072C74.0093 76.072 73.4933 75.784 73.0133 75.208C72.5573 74.608 72.3293 73.972 72.3293 73.3C72.3293 71.812 72.7253 69.292 73.5173 65.74C72.9173 67.036 72.1373 68.368 71.1773 69.736C70.2413 71.08 69.3173 72.268 68.4053 73.3C67.4933 74.332 66.8213 75.004 66.3893 75.316C65.7893 75.772 65.1293 76 64.4093 76C63.0413 76 62.3573 75.136 62.3573 73.408C62.3573 71.728 62.9933 69.64 64.2653 67.144C65.5373 64.624 67.0493 62.44 68.8013 60.592C70.5533 58.768 71.9693 57.856 73.0493 57.856C74.1533 57.856 74.7773 58.336 74.9213 59.296C74.9933 59.584 75.0293 59.896 75.0293 60.232C75.1493 60.16 75.2813 60.124 75.4253 60.124C75.9773 60.124 76.2533 60.388 76.2533 60.916V61.06L75.8213 62.644C75.4853 63.844 75.1373 65.62 74.7773 67.972C74.4173 70.324 74.2373 72.28 74.2373 73.84L74.5973 74.056C75.1733 74.416 75.4613 74.776 75.4613 75.136C75.4613 75.376 75.3773 75.592 75.2093 75.784C75.0413 75.976 74.8253 76.072 74.5613 76.072ZM64.6973 74.128C64.9613 74.128 65.1773 74.044 65.3453 73.876C67.7933 71.788 69.9653 68.896 71.8613 65.2C72.6773 63.664 73.1813 62.656 73.3733 62.176C73.5893 61.696 73.6973 61.228 73.6973 60.772C73.6973 60.532 73.6373 60.316 73.5173 60.124C73.3973 59.932 73.2413 59.836 73.0493 59.836C72.8093 59.836 72.4973 59.944 72.1133 60.16C71.1533 60.664 70.0133 61.732 68.6933 63.364C67.3973 64.996 66.3293 66.724 65.4893 68.548C64.6013 70.396 64.1572 72.04 64.1572 73.48C64.1572 73.912 64.3372 74.128 64.6973 74.128ZM80.2571 76.504C80.0171 76.504 79.8131 76.456 79.6451 76.36C79.4771 76.264 79.3931 76.144 79.3931 76C79.6091 75.328 79.7771 74.632 79.8971 73.912C80.0651 73.024 80.2571 72.28 80.4731 71.68C81.4091 67.984 82.2251 63.772 82.9211 59.044L83.0291 58.432C83.0291 58.264 83.1971 57.988 83.5331 57.604C83.7491 57.508 83.9291 57.46 84.0731 57.46C84.3851 57.46 84.6011 57.664 84.7211 58.072V58.36C84.6971 59.944 84.4331 61.804 83.9291 63.94L83.0291 67.72L83.8931 65.848C85.1411 62.92 86.3411 60.808 87.4931 59.512C88.5731 58.288 89.7731 57.676 91.0931 57.676C91.7891 57.676 92.3651 57.964 92.8211 58.54C93.3011 59.116 93.5411 59.8 93.5411 60.592V60.88C93.5171 60.952 93.5051 61.048 93.5051 61.168C94.8011 59.584 96.1571 58.504 97.5731 57.928C98.0291 57.736 98.4731 57.64 98.9051 57.64C99.3611 57.64 99.7811 57.856 100.165 58.288C100.549 58.72 100.741 59.272 100.741 59.944C100.741 61.264 100.477 62.836 99.9491 64.66C99.6131 65.764 99.3491 66.592 99.1571 67.144C98.0051 70.552 97.3691 72.856 97.2491 74.056C97.2251 74.272 97.1891 74.548 97.1411 74.884C97.0931 75.196 97.0571 75.388 97.0331 75.46C96.8411 76.036 96.5171 76.324 96.0611 76.324C95.5091 76.324 95.2331 75.736 95.2331 74.56C95.2331 73.84 95.3651 73.048 95.6291 72.184C95.8451 71.536 96.0731 70.804 96.3131 69.988C96.3851 69.7 96.6131 69.004 96.9971 67.9C97.5491 66.34 97.9811 65.02 98.2931 63.94C98.6051 62.86 98.8211 61.672 98.9411 60.376C98.9411 59.92 98.8811 59.644 98.7611 59.548C98.6651 59.428 98.4491 59.368 98.1131 59.368C97.7531 59.368 97.2491 59.584 96.6011 60.016C95.9771 60.448 95.3531 61.024 94.7291 61.744C93.2891 63.376 92.1851 65.488 91.4171 68.08C91.1771 68.968 90.9731 69.604 90.8051 69.988C90.0131 72.388 89.5211 73.948 89.3291 74.668C89.1371 75.436 88.9811 75.892 88.8611 76.036C88.7171 76.228 88.5011 76.324 88.2131 76.324C87.6611 76.324 87.3611 76.024 87.3131 75.424C87.5531 73.744 87.8891 72.256 88.3211 70.96C88.7531 69.664 89.2931 68.212 89.9411 66.604C90.3491 65.548 90.6971 64.492 90.9851 63.436C91.2971 62.356 91.4531 61.444 91.4531 60.7C91.4531 59.884 91.2011 59.476 90.6971 59.476C89.8571 59.476 88.8971 60.268 87.8171 61.852C86.7371 63.412 85.7411 65.152 84.8291 67.072C83.9171 68.968 83.3291 70.312 83.0651 71.104C82.8971 71.56 82.7651 71.932 82.6691 72.22C82.5731 72.484 82.5011 72.7 82.4531 72.868C81.6851 75.292 80.9531 76.504 80.2571 76.504ZM107.526 76.36C106.758 76.36 106.158 76.24 105.726 76C105.294 75.736 104.946 75.34 104.682 74.812C104.178 73.876 103.926 72.748 103.926 71.428C103.926 69.124 104.274 66.94 104.97 64.876C105.666 62.788 106.614 61.036 107.814 59.62C108.966 58.276 110.226 57.604 111.594 57.604C112.314 57.604 112.878 57.904 113.286 58.504C113.718 59.08 113.934 59.788 113.934 60.628C113.934 62.092 113.55 63.364 112.782 64.444C112.038 65.524 111.03 66.424 109.758 67.144C108.654 67.792 107.31 68.44 105.726 69.088L105.654 71.68C105.654 73.696 106.266 74.704 107.49 74.704C107.994 74.704 108.474 74.608 108.93 74.416C109.41 74.224 109.926 73.96 110.478 73.624C111.126 73.24 111.582 73.048 111.846 73.048C112.254 73.048 112.458 73.264 112.458 73.696C112.458 74.008 112.158 74.38 111.558 74.812C110.982 75.244 110.298 75.616 109.506 75.928C108.714 76.216 108.054 76.36 107.526 76.36ZM106.014 67.36C107.622 66.712 108.846 66.136 109.686 65.632C110.526 65.128 111.162 64.492 111.594 63.724C112.05 62.956 112.278 61.948 112.278 60.7C112.278 59.764 111.882 59.296 111.09 59.296C110.394 59.296 109.578 59.932 108.642 61.204C107.658 62.476 106.866 64.144 106.266 66.208C106.098 66.784 106.014 67.168 106.014 67.36ZM115.49 73.336C115.49 73.024 115.574 72.808 115.742 72.688C115.91 72.568 116.126 72.484 116.39 72.436C116.606 72.436 116.774 72.508 116.894 72.652C117.038 72.796 117.206 73.024 117.398 73.336C117.59 73.672 117.746 73.912 117.866 74.056C118.01 74.176 118.25 74.236 118.586 74.236C119.354 74.236 119.978 73.996 120.458 73.516C120.962 73.036 121.214 72.472 121.214 71.824C121.214 71.128 121.07 70.396 120.782 69.628C120.494 68.86 120.05 67.9 119.45 66.748C118.25 64.588 117.65 62.872 117.65 61.6C117.65 60.328 117.962 59.308 118.586 58.54C119.234 57.772 120.11 57.388 121.214 57.388C121.982 57.388 122.714 57.604 123.41 58.036C124.106 58.468 124.454 59.008 124.454 59.656C124.454 60.352 124.166 60.7 123.59 60.7C123.422 60.7 123.278 60.652 123.158 60.556C123.062 60.46 122.966 60.352 122.87 60.232C122.774 60.088 122.702 59.992 122.654 59.944C122.222 59.44 121.742 59.188 121.214 59.188C120.038 59.188 119.45 59.872 119.45 61.24C119.45 61.984 119.594 62.74 119.882 63.508C120.17 64.276 120.602 65.248 121.178 66.424C121.73 67.576 122.15 68.536 122.438 69.304C122.726 70.072 122.87 70.804 122.87 71.5C122.87 72.724 122.498 73.756 121.754 74.596C121.01 75.436 119.966 75.94 118.622 76.108C117.782 76.108 117.05 75.82 116.426 75.244C115.802 74.644 115.49 74.008 115.49 73.336ZM50.4175 126.324C50.0575 126.324 49.8415 126.072 49.7695 125.568C50.7535 120.096 52.0975 113.652 53.8015 106.236C55.4815 99.012 56.5975 94.176 57.1495 91.728C57.2455 91.488 57.3895 91.284 57.5815 91.116C57.7975 90.948 58.0015 90.864 58.1935 90.864C58.5775 90.864 58.7695 91.08 58.7695 91.512C58.1935 94.776 57.5455 97.884 56.8255 100.836C56.3455 102.876 55.6495 105.936 54.7375 110.016L62.2975 101.556C65.2975 98.244 68.2375 94.884 71.1175 91.476C71.3575 91.284 71.6095 91.188 71.8735 91.188C72.2575 91.188 72.4495 91.392 72.4495 91.8C72.4495 92.064 72.3535 92.304 72.1615 92.52C70.5535 94.44 67.8295 97.572 63.9895 101.916C60.0535 106.356 57.6175 109.128 56.6815 110.232C56.8975 112.392 57.3535 114.42 58.0495 116.316C58.7455 118.212 59.5975 119.832 60.6055 121.176C61.6135 122.496 62.6695 123.444 63.7735 124.02C64.6135 124.5 65.5255 124.74 66.5095 124.74C67.9015 124.74 68.9575 124.212 69.6775 123.156C69.9175 122.964 70.1335 122.868 70.3255 122.868C70.8055 122.868 71.0455 123.084 71.0455 123.516C71.0455 123.78 70.8775 124.116 70.5415 124.524C70.2055 124.908 69.7855 125.268 69.2815 125.604C68.8015 125.916 68.3695 126.096 67.9855 126.144C67.3375 126.264 66.7615 126.324 66.2575 126.324C65.2495 126.324 64.2895 126.12 63.3775 125.712C62.4655 125.304 61.5775 124.644 60.7135 123.732C59.3695 122.388 58.2295 120.624 57.2935 118.44C56.3575 116.256 55.6735 113.964 55.2415 111.564C55.1215 111.684 54.8935 111.912 54.5575 112.248C54.2455 112.584 54.0295 112.848 53.9095 113.04C52.6615 118.608 51.8335 122.7 51.4255 125.316C51.3775 125.604 51.2455 125.844 51.0295 126.036C50.8375 126.228 50.6335 126.324 50.4175 126.324ZM76.8876 126.36C76.1196 126.36 75.5196 126.24 75.0876 126C74.6556 125.736 74.3076 125.34 74.0436 124.812C73.5396 123.876 73.2876 122.748 73.2876 121.428C73.2876 119.124 73.6356 116.94 74.3316 114.876C75.0276 112.788 75.9756 111.036 77.1756 109.62C78.3276 108.276 79.5876 107.604 80.9556 107.604C81.6756 107.604 82.2396 107.904 82.6476 108.504C83.0796 109.08 83.2956 109.788 83.2956 110.628C83.2956 112.092 82.9116 113.364 82.1436 114.444C81.3996 115.524 80.3916 116.424 79.1196 117.144C78.0156 117.792 76.6716 118.44 75.0876 119.088L75.0156 121.68C75.0156 123.696 75.6276 124.704 76.8516 124.704C77.3556 124.704 77.8356 124.608 78.2916 124.416C78.7716 124.224 79.2876 123.96 79.8396 123.624C80.4876 123.24 80.9436 123.048 81.2076 123.048C81.6156 123.048 81.8196 123.264 81.8196 123.696C81.8196 124.008 81.5196 124.38 80.9196 124.812C80.3436 125.244 79.6596 125.616 78.8676 125.928C78.0756 126.216 77.4156 126.36 76.8876 126.36ZM75.3756 117.36C76.9836 116.712 78.2076 116.136 79.0476 115.632C79.8876 115.128 80.5236 114.492 80.9556 113.724C81.4116 112.956 81.6396 111.948 81.6396 110.7C81.6396 109.764 81.2436 109.296 80.4516 109.296C79.7556 109.296 78.9396 109.932 78.0036 111.204C77.0196 112.476 76.2276 114.144 75.6276 116.208C75.4596 116.784 75.3756 117.168 75.3756 117.36ZM88.0195 126.288C87.1555 126.288 86.4955 126.06 86.0395 125.604C85.6075 125.148 85.3915 124.548 85.3915 123.804C85.3915 123.156 85.4275 122.568 85.4995 122.04C85.5715 121.488 85.7035 120.636 85.8955 119.484C86.2795 117.252 86.7715 114.708 87.3715 111.852L88.3075 107.316C90.3715 97.452 91.4755 92.28 91.6195 91.8C91.7395 91.416 92.0035 91.224 92.4115 91.224C92.9155 91.224 93.1675 91.5 93.1675 92.052L93.0235 92.988C92.9035 93.756 92.7715 94.476 92.6275 95.148C92.4835 95.796 92.2195 97.056 91.8355 98.928C91.1875 101.952 90.3595 105.84 89.3515 110.592C88.3675 115.344 87.7435 118.512 87.4795 120.096C87.1675 121.824 87.0115 122.904 87.0115 123.336C87.0115 123.696 87.1195 124.02 87.3355 124.308C87.5515 124.596 87.8155 124.74 88.1275 124.74C88.4635 124.74 88.7755 124.68 89.0635 124.56C89.3755 124.416 89.5795 124.32 89.6755 124.272L90.2875 123.948C90.4795 123.852 90.5995 123.804 90.6475 123.804C91.1755 123.804 91.4395 124.068 91.4395 124.596C91.4395 125.124 91.1035 125.544 90.4315 125.856C89.7595 126.144 88.9555 126.288 88.0195 126.288ZM94.2382 123.336C94.2382 123.024 94.3222 122.808 94.4902 122.688C94.6582 122.568 94.8742 122.484 95.1382 122.436C95.3542 122.436 95.5222 122.508 95.6422 122.652C95.7862 122.796 95.9542 123.024 96.1462 123.336C96.3382 123.672 96.4942 123.912 96.6142 124.056C96.7582 124.176 96.9982 124.236 97.3342 124.236C98.1022 124.236 98.7262 123.996 99.2062 123.516C99.7102 123.036 99.9622 122.472 99.9622 121.824C99.9622 121.128 99.8182 120.396 99.5302 119.628C99.2422 118.86 98.7982 117.9 98.1982 116.748C96.9982 114.588 96.3982 112.872 96.3982 111.6C96.3982 110.328 96.7102 109.308 97.3342 108.54C97.9822 107.772 98.8582 107.388 99.9622 107.388C100.73 107.388 101.462 107.604 102.158 108.036C102.854 108.468 103.202 109.008 103.202 109.656C103.202 110.352 102.914 110.7 102.338 110.7C102.17 110.7 102.026 110.652 101.906 110.556C101.81 110.46 101.714 110.352 101.618 110.232C101.522 110.088 101.45 109.992 101.402 109.944C100.97 109.44 100.49 109.188 99.9622 109.188C98.7862 109.188 98.1982 109.872 98.1982 111.24C98.1982 111.984 98.3422 112.74 98.6302 113.508C98.9182 114.276 99.3502 115.248 99.9262 116.424C100.478 117.576 100.898 118.536 101.186 119.304C101.474 120.072 101.618 120.804 101.618 121.5C101.618 122.724 101.246 123.756 100.502 124.596C99.7582 125.436 98.7142 125.94 97.3702 126.108C96.5302 126.108 95.7982 125.82 95.1742 125.244C94.5502 124.644 94.2382 124.008 94.2382 123.336ZM109.056 126.324C107.808 126.324 106.872 125.832 106.248 124.848C105.648 123.864 105.348 122.688 105.348 121.32C105.348 119.136 105.708 117.024 106.428 114.984C107.172 112.92 108.18 111.216 109.452 109.872C110.676 108.504 112.056 107.82 113.592 107.82C115.8 107.82 116.904 109.5 116.904 112.86C116.904 114.54 116.628 116.256 116.076 118.008C115.524 119.76 114.804 121.32 113.916 122.688C113.052 124.056 112.152 125.04 111.216 125.64C110.496 126.096 109.776 126.324 109.056 126.324ZM109.344 124.704C110.088 124.704 110.916 124.056 111.828 122.76C112.764 121.464 113.544 119.856 114.168 117.936C114.816 116.016 115.14 114.384 115.14 113.04C115.14 111.648 115.056 110.784 114.888 110.448C114.744 110.088 114.564 109.836 114.348 109.692C114.132 109.548 113.796 109.476 113.34 109.476C112.836 109.476 112.308 109.668 111.756 110.052C110.652 110.748 109.692 111.948 108.876 113.652C107.604 116.196 106.968 118.668 106.968 121.068C106.968 122.7 107.436 123.828 108.372 124.452C108.708 124.62 109.032 124.704 109.344 124.704Z" fill="black"/>
</svg>
